<?xml version="1.0" encoding="utf-8"?>
<!-- Generator: Adobe Illustrator 27.2.0, SVG Export Plug-In . SVG Version: 6.00 Build 0)  -->
<svg version="1.1" id="Capa_1" xmlns="http://www.w3.org/2000/svg" xmlns:xlink="http://www.w3.org/1999/xlink" x="0px" y="0px"
	 viewBox="0 0 1337.7 752.5" style="enable-background:new 0 0 1337.7 752.5;" xml:space="preserve">
<style type="text/css">
	.st0{fill:#262626;}
	.st1{fill:#F3A722;}
</style>
<g>
	<g>
		<path class="st0" d="M403.7,537c-2.5-1.7-5.2-3-8.2-4.1c-3-1.1-5.9-2.1-8.8-2.9c-2.5-0.8-4.7-1.6-6.7-2.4c-2-0.8-3.6-1.8-4.8-3
			c-1.2-1.2-1.8-2.7-1.8-4.7c0-1.8,0.5-3.3,1.6-4.6c1.1-1.3,2.5-2.4,4.2-3.1c1.8-0.7,3.7-1,5.8-1c1.9,0,3.7,0.3,5.4,1
			c1.7,0.7,3.2,1.6,4.4,2.7s2,2.5,2.3,4l13.2-3.6c-1.1-3.4-2.9-6.4-5.2-8.7c-2.4-2.4-5.3-4.2-8.7-5.4c-3.4-1.2-7.3-1.8-11.6-1.8
			c-5.1,0-9.5,0.8-13.4,2.4c-3.9,1.6-6.9,4-9.1,7.2c-2.2,3.2-3.3,7-3.3,11.5c0,3.6,0.6,6.6,2,8.9c1.3,2.4,3.1,4.3,5.3,5.8
			c2.2,1.5,4.7,2.7,7.5,3.7c2.8,1,5.6,1.9,8.4,2.7c3,0.9,5.7,1.9,8,2.8c2.3,1,4.1,2.2,5.3,3.6c1.3,1.4,1.9,3.2,1.9,5.3
			c0,2.7-1,4.9-3.1,6.8c-2,1.9-5.1,2.8-9.3,2.8c-2.5,0-4.8-0.4-6.7-1.2c-1.9-0.8-3.5-2-4.7-3.4c-1.2-1.5-2-3.2-2.3-5.2l-13.2,3.7
			c0.8,3.7,2.4,7,5,9.7c2.5,2.7,5.8,4.8,9.7,6.2c3.9,1.4,8.2,2.1,13,2.1c5.8,0,10.7-1,14.6-3c3.9-2,6.8-4.6,8.7-7.9
			c1.9-3.3,2.9-7,2.9-11.1c0-3.9-0.8-7.1-2.3-9.6C408.2,540.8,406.2,538.7,403.7,537z"/>
		<polygon class="st0" points="436,574.1 487.9,574.1 487.9,562.2 450.3,562.2 450.3,542.5 478.4,542.5 478.4,531 450.3,531 
			450.3,512.2 487.9,512.2 487.9,500.3 436,500.3 		"/>
		<path class="st0" d="M560.9,557c-2.4,2.1-5,3.6-7.8,4.5c-2.8,0.9-5.6,1.3-8.4,1.3c-4.5,0-8.5-1.1-12-3.3c-3.5-2.2-6.2-5.2-8.2-9
			c-1.9-3.8-2.9-8.3-2.9-13.4c0-5.1,1-9.5,2.9-13.4c1.9-3.9,4.7-6.9,8.2-9c3.5-2.1,7.5-3.2,12-3.2c2.7,0,5.5,0.4,8.1,1.3
			c2.7,0.8,5.2,2.2,7.4,4c2.3,1.8,4.2,4.2,5.8,7.2l11.9-3.5c-3-6.8-7.4-11.9-13.2-15.6c-5.9-3.6-12.6-5.4-20.2-5.4
			c-5.3,0-10.2,0.9-14.7,2.7c-4.5,1.8-8.5,4.4-11.9,7.8c-3.4,3.3-6,7.3-7.9,11.9c-1.9,4.6-2.8,9.7-2.8,15.3c0,5.5,0.9,10.5,2.8,15.1
			c1.9,4.6,4.5,8.6,7.9,12c3.4,3.4,7.3,6,11.9,7.8c4.5,1.8,9.4,2.7,14.7,2.7c7.8,0,14.7-1.9,20.7-5.8c6-3.8,10.5-9.6,13.5-17.3
			l-11.7-3.3C565.3,552.1,563.3,554.9,560.9,557z"/>
		<path class="st0" d="M645.7,546.9c0,3.4-0.7,6.4-2.1,8.7c-1.4,2.4-3.3,4.1-5.8,5.3c-2.5,1.2-5.3,1.8-8.6,1.8c-3.2,0-6-0.6-8.4-1.8
			s-4.3-3-5.8-5.3c-1.4-2.4-2.1-5.3-2.1-8.7v-46.7h-14.3v45.9c0,6.5,1.4,11.8,4.2,16c2.8,4.2,6.5,7.4,11.1,9.5s9.6,3.2,14.9,3.2
			c4,0,7.9-0.6,11.6-1.7c3.7-1.2,7-2.9,9.9-5.3c2.9-2.4,5.2-5.4,6.9-9c1.7-3.6,2.5-7.8,2.5-12.7v-45.9h-14.3V546.9z"/>
		<path class="st0" d="M739.8,544c3.3-1.3,6.1-3.1,8.2-5.3c2.1-2.2,3.7-4.7,4.6-7.4c1-2.7,1.5-5.4,1.5-8.2c0-4.1-1-7.9-2.9-11.4
			c-1.9-3.5-4.9-6.3-8.8-8.3c-3.9-2.1-8.9-3.1-14.8-3.1h-30.4v73.9h14.3V546h11.8l16.4,28.2h15.9l-17.9-29.5
			C738.4,544.4,739.1,544.2,739.8,544z M711.4,512.2h15.7c4.2,0,7.3,1,9.3,3c2,2,3,4.6,3,7.9c0,2.3-0.4,4.2-1.3,5.9
			c-0.9,1.7-2.2,2.9-4.1,3.8c-1.8,0.9-4.2,1.3-7,1.3h-15.7V512.2z"/>
		<rect x="783.3" y="500.3" class="st0" width="14.3" height="73.9"/>
		<polygon class="st0" points="819,512.2 841.8,512.2 841.8,574.1 856,574.1 856,512.2 878.8,512.2 878.8,500.3 819,500.3 		"/>
		<polygon class="st0" points="940.4,500.3 921.6,534.6 902.8,500.3 886.9,500.3 914.5,548.3 914.5,574.1 928.8,574.1 928.8,548.2 
			956.4,500.3 		"/>
	</g>
	<g>
		<path class="st0" d="M132.2,397.7V179.8h112.4c14.9,0,27.7,2.4,38.1,7.2c10.5,4.8,18.5,11.5,24,20.1c5.5,8.6,8.3,18.7,8.3,30.4
			c0,9.8-1.8,17.9-5.4,24.4c-3.6,6.5-8.7,11.7-15.3,15.4c-6.5,3.7-14.1,6.2-22.6,7.5v2.5c10.4,1.2,19.1,4,26.3,8.2
			c7.2,4.3,12.6,10,16.3,17.1c3.7,7.2,5.6,15.6,5.6,25.4c0,12-2.7,22.5-8.2,31.4c-5.5,8.9-13.6,15.9-24.3,20.9
			c-10.7,5-23.8,7.5-39.4,7.5H132.2z M260.2,245.4c0-7.3-2.3-12.5-6.8-15.6c-4.6-3.1-11.1-4.7-19.6-4.7h-47.3v40.5h46.7
			c8.5,0,15.1-1.6,19.9-4.8C257.8,257.6,260.2,252.5,260.2,245.4z M186.4,352.2h51.7c8.7,0,15.5-1.9,20.2-5.6
			c4.8-3.7,7.2-9.2,7.2-16.5c0-7.5-2.5-13-7.5-16.7c-5-3.6-11.8-5.5-20.5-5.5h-51.1V352.2z"/>
		<path class="st0" d="M527.9,397.7h56l-79.1-217.9h-85.9l-79.7,217.9h56l15.3-43.6h101.9L527.9,397.7z M426.4,308.6l29.2-83.4h10.9
			l29.7,83.4H426.4z"/>
		<path class="st0" d="M643.3,331.4c1,6,3.2,10.8,6.4,14.5c3.2,3.6,7.2,6.2,11.8,7.8c4.7,1.6,9.8,2.3,15.4,2.3
			c9.8,0,17.3-2,22.6-6.1c5.3-4,7.9-9.3,7.9-15.7c0-5.2-1.6-9.3-4.8-12.5c-3.2-3.1-7.7-5.8-13.4-7.9c-5.7-2.2-12.3-4.4-19.8-6.7
			c-8.3-2.3-16.7-4.9-25.2-7.9c-8.5-3-16.4-6.9-23.7-11.5s-13.1-10.7-17.4-18.2c-4.4-7.5-6.4-16.8-6.2-28c0-13.7,3.5-25.3,10.6-34.9
			c7.1-9.5,16.6-16.8,28.6-21.6c12-4.9,25.8-7.3,41.4-7.3c14.1,0,26.7,2.1,37.7,6.2c11,4.2,20.1,10.2,27.2,18.2
			c7.2,8,12.2,17.9,15.1,29.7l-49.8,8.7c-0.8-4.6-2.7-8.3-5.6-11.2c-2.9-2.9-6.4-5-10.4-6.4c-4-1.3-8-2-12-2c-5,0-9.5,0.8-13.7,2.5
			c-4.2,1.7-7.5,4-10.1,7.2c-2.6,3.1-3.9,6.7-3.9,10.9c0,4.6,1.5,8.3,4.5,11.2c3,2.9,7.1,5.5,12.3,7.8c5.2,2.3,10.9,4.5,17.1,6.5
			c8.5,2.7,17.2,5.6,26.2,8.7c8.9,3.1,17.2,7.1,24.9,12c7.7,4.9,13.9,11.1,18.5,18.7c4.7,7.6,7,17.1,7,28.5c0,12.2-3,23.2-9,33
			c-6,9.8-15.1,17.5-27.1,23.3c-12,5.8-27.3,8.7-45.8,8.7c-15.6,0-29.5-2.2-41.9-6.7c-12.3-4.5-22.5-11.1-30.4-19.8
			c-7.9-8.7-13.1-19.4-15.6-32.1L643.3,331.4z"/>
		<polygon class="st0" points="983.6,345.2 983.6,397.7 803.3,397.7 803.3,179.7 966.7,179.7 966.7,225.2 857.5,225.2 857.5,266 
			939,266 939,308.3 857.5,308.3 857.5,345.2 		"/>
		<path class="st1" d="M1173.3,348.4V180.8h-69.4L983.6,345.2v52.5h127.6v51.4h62.1v-51.4h32.2v-49.3H1173.3z M1114.9,346.2h-66.8
			l66.8-99.3V346.2z"/>
	</g>
</g>
</svg>
