<svg width="169" height="28" viewBox="0 0 169 28" fill="none" xmlns="http://www.w3.org/2000/svg">
<path d="M15.2493 20.6708H3.96939C4.51197 22.7581 5.99692 23.8299 8.36713 23.8299C9.99487 23.8299 11.9367 23.2094 13.2218 22.335L14.7639 25.0428C12.8505 26.3967 10.6802 27.1018 8.19579 27.1018C5.54001 27.1018 3.54104 26.3403 2.1132 24.8453C0.713919 23.3504 0 21.4888 0 19.3451C0 17.0886 0.713919 15.227 2.17031 13.7603C3.62671 12.2936 5.51146 11.5602 7.82456 11.5602C9.99487 11.5602 11.8225 12.2372 13.2503 13.5911C14.6496 14.9168 15.3635 16.722 15.3635 19.0349C15.3921 19.5144 15.335 20.0785 15.2493 20.6708ZM3.96939 17.822H11.6226C11.2514 15.8758 9.85209 14.7193 7.85311 14.7193C5.91125 14.6911 4.4263 15.8758 3.96939 17.822Z" fill="#0A2FF1"/>
<path d="M28.2132 6.03156H32.0969V26.7631H28.2989V24.9297C27.0709 26.3682 25.5289 27.1016 23.6441 27.1016C21.5309 27.1016 19.7319 26.3682 18.304 24.9015C16.9047 23.4065 16.1908 21.5449 16.1908 19.3167C16.1908 17.1166 16.9047 15.255 18.304 13.76C19.7319 12.2651 21.5024 11.5318 23.6441 11.5318C25.4718 11.5318 26.9853 12.2369 28.2418 13.619V6.03156H28.2132ZM27.2423 16.2704C26.4712 15.4242 25.4718 15.0293 24.2438 15.0293C22.9873 15.0293 22.0164 15.4524 21.2168 16.2704C20.4172 17.0884 20.046 18.1038 20.046 19.3167C20.046 20.5577 20.4458 21.5449 21.2168 22.3911C22.0164 23.2091 23.0159 23.6322 24.2438 23.6322C25.5003 23.6322 26.4712 23.2091 27.2423 22.3911C28.0133 21.5449 28.4131 20.5295 28.4131 19.3167C28.4131 18.1038 28.0133 17.0884 27.2423 16.2704Z" fill="#0A2FF1"/>
<path d="M34.3544 20.4733V11.8986H38.2381V20.5015C38.2381 22.3913 39.3804 23.6042 41.2366 23.6042C43.1213 23.6042 44.235 22.3631 44.235 20.5015V11.8986H48.1188V20.5015C48.1188 24.676 45.5201 27.1299 41.208 27.1299C36.9816 27.1017 34.3544 24.6478 34.3544 20.4733Z" fill="#0A2FF1"/>
<path d="M51.8298 24.9015C50.3448 23.4629 49.6024 21.5731 49.6024 19.3166C49.6024 17.0601 50.3448 15.1703 51.8583 13.7318C53.3719 12.2651 55.3137 11.5317 57.6839 11.5317C60.7395 11.5317 63.4524 13.0267 64.7089 15.678L61.5962 17.3704C60.6824 15.8755 59.3973 15.1139 57.7696 15.1139C56.5131 15.1139 55.5136 15.537 54.714 16.355C53.9144 17.1448 53.4861 18.1602 53.4861 19.3448C53.4861 20.5859 53.8859 21.5731 54.6855 22.3911C55.4851 23.1809 56.5131 23.604 57.6839 23.604C59.2546 23.604 60.8537 22.6732 61.5105 21.3757L64.6518 23.2091C63.3667 25.6066 60.6824 27.1297 57.5697 27.1297C55.228 27.0733 53.3147 26.34 51.8298 24.9015Z" fill="#0A2FF1"/>
<path d="M77.3319 11.8987H81.0443V26.7634H77.3319V25.0428C76.0468 26.4249 74.4191 27.13 72.5343 27.13C70.3926 27.13 68.5935 26.3967 67.1657 24.9017C65.7378 23.4068 65.0525 21.517 65.0525 19.2887C65.0525 17.0604 65.7664 15.1988 67.1657 13.7603C68.5649 12.2936 70.364 11.5602 72.5058 11.5602C74.3905 11.5602 75.9897 12.2654 77.3033 13.7039V11.8987H77.3319ZM76.1896 16.2707C75.39 15.4245 74.3905 15.0296 73.1911 15.0296C71.9346 15.0296 70.9637 15.4527 70.1641 16.2707C69.3931 17.1169 68.9933 18.1323 68.9933 19.2887C68.9933 20.5016 69.3931 21.4888 70.1927 22.335C70.9923 23.1812 71.9918 23.5761 73.1911 23.5761C74.4191 23.5761 75.39 23.153 76.1896 22.335C76.9892 21.4888 77.4175 20.4734 77.4175 19.2887C77.389 18.1323 76.9892 17.1169 76.1896 16.2707Z" fill="#0A2FF1"/>
<path d="M84.8709 24.9015C83.3859 23.4629 82.6435 21.5731 82.6435 19.3166C82.6435 17.0601 83.3859 15.1703 84.8994 13.7318C86.413 12.2651 88.3548 11.5317 90.725 11.5317C93.7806 11.5317 96.4935 13.0267 97.75 15.678L94.6373 17.3704C93.7235 15.8755 92.4384 15.1139 90.8107 15.1139C89.5542 15.1139 88.5547 15.537 87.7551 16.355C86.9555 17.1448 86.5272 18.1602 86.5272 19.3448C86.5272 20.5859 86.927 21.5731 87.7266 22.3911C88.5262 23.1809 89.5542 23.604 90.725 23.604C92.2956 23.604 93.8948 22.6732 94.5516 21.3757L97.6929 23.2091C96.4078 25.6066 93.7235 27.1297 90.6108 27.1297C88.2691 27.0733 86.3844 26.34 84.8709 24.9015Z" fill="#0A2FF1"/>
<path d="M99.2918 9.55753C98.3779 8.65493 98.3779 7.07539 99.2918 6.201C100.206 5.2984 101.805 5.2984 102.719 6.201C103.632 7.07539 103.632 8.65493 102.719 9.55753C101.805 10.4319 100.206 10.4319 99.2918 9.55753ZM102.947 26.7633H99.0633V11.8986H102.947V26.7633Z" fill="#0A2FF1"/>
<path d="M106.774 13.7604C108.287 12.2373 110.229 11.4757 112.571 11.4757C114.912 11.4757 116.854 12.2373 118.368 13.7604C119.881 15.2554 120.624 17.117 120.624 19.2888C120.624 21.4889 119.881 23.3505 118.368 24.8454C116.854 26.3404 114.912 27.1019 112.571 27.1019C110.229 27.1019 108.287 26.3404 106.774 24.8454C105.26 23.3505 104.518 21.4889 104.518 19.2888C104.518 17.117 105.26 15.2836 106.774 13.7604ZM112.571 23.5762C113.77 23.5762 114.712 23.1531 115.512 22.3351C116.311 21.4889 116.74 20.4735 116.74 19.317C116.74 18.1324 116.311 17.1452 115.512 16.3272C114.712 15.5092 113.741 15.0861 112.571 15.0861C111.371 15.0861 110.4 15.5092 109.601 16.3272C108.801 17.1452 108.401 18.1606 108.401 19.317C108.401 20.5017 108.801 21.4889 109.601 22.3351C110.4 23.1531 111.4 23.5762 112.571 23.5762ZM110.629 9.67053L112.342 4.87549H116.683L114.084 9.67053H110.629Z" fill="#0A2FF1"/>
<path d="M122.279 26.7633V11.8986H126.078V13.9577C126.877 12.5192 128.676 11.4755 130.789 11.4755C132.417 11.4755 133.816 12.0114 134.959 13.0833C136.101 14.1551 136.672 15.6782 136.672 17.6527V26.7351H132.788V18.7245C132.788 16.3552 131.532 15.0295 129.619 15.0295C127.534 15.0295 126.163 16.5808 126.163 18.7809V26.7351H122.279V26.7633Z" fill="#0A2FF1"/>
<path d="M163.679 0.869995H146.448C143.87 0.869995 141.756 2.95899 141.756 5.50586V24.6502C141.756 26.0238 142.886 27.1685 144.305 27.1685H158.437C165.764 27.1685 168.37 21.2735 168.37 18.0398V5.50586C168.37 2.93038 166.285 0.869995 163.679 0.869995ZM150.357 22.0175H146.882V5.96372H150.357V22.0175ZM164.605 9.28322H160.088V22.0461H156.613V9.28322H152.124V5.96372H164.634V9.28322H164.605Z" fill="#0A2FF1"/>
</svg>
