<svg id="_0500_coach" xmlns="http://www.w3.org/2000/svg" xmlns:xlink="http://www.w3.org/1999/xlink" viewBox="0 0 500 500" data-imageid="coach-85" imageName="Coach" class="illustrations_image" style="width: 166px;"><defs><style>.cls-1_coach-85{fill:url(#linear-gradient);}.cls-1_coach-85,.cls-2_coach-85,.cls-3_coach-85,.cls-4_coach-85,.cls-5_coach-85,.cls-6_coach-85,.cls-7_coach-85,.cls-8_coach-85,.cls-9_coach-85,.cls-10_coach-85,.cls-11_coach-85,.cls-12_coach-85,.cls-13_coach-85,.cls-14_coach-85,.cls-15_coach-85,.cls-16_coach-85,.cls-17_coach-85,.cls-18_coach-85,.cls-19_coach-85,.cls-20_coach-85,.cls-21_coach-85,.cls-22_coach-85,.cls-23_coach-85,.cls-24_coach-85,.cls-25_coach-85,.cls-26_coach-85{stroke-width:0px;}.cls-2_coach-85{opacity:.18;}.cls-2_coach-85,.cls-13_coach-85{isolation:isolate;}.cls-2_coach-85,.cls-26_coach-85{fill:#68e1fd;}.cls-3_coach-85{fill:url(#linear-gradient-11-coach-85);}.cls-4_coach-85{fill:url(#linear-gradient-12-coach-85);}.cls-5_coach-85{fill:url(#linear-gradient-13-coach-85);}.cls-6_coach-85{fill:url(#linear-gradient-10-coach-85);}.cls-7_coach-85{fill:url(#linear-gradient-17-coach-85);}.cls-8_coach-85{fill:url(#linear-gradient-16-coach-85);}.cls-9_coach-85{fill:url(#linear-gradient-19-coach-85);}.cls-10_coach-85{fill:url(#linear-gradient-15-coach-85);}.cls-11_coach-85{fill:url(#linear-gradient-18-coach-85);}.cls-12_coach-85{fill:url(#linear-gradient-14-coach-85);}.cls-13_coach-85{opacity:.28;}.cls-13_coach-85,.cls-24_coach-85{fill:#fff;}.cls-27_coach-85{fill:none;stroke:url(#linear-gradient-2-coach-85);stroke-miterlimit:10;stroke-width:.72px;}.cls-14_coach-85{fill:url(#linear-gradient-4-coach-85);}.cls-15_coach-85{fill:url(#linear-gradient-3-coach-85);}.cls-16_coach-85{fill:url(#linear-gradient-8-coach-85);}.cls-17_coach-85{fill:url(#linear-gradient-9-coach-85);}.cls-18_coach-85{fill:url(#linear-gradient-7-coach-85);}.cls-19_coach-85{fill:url(#linear-gradient-5-coach-85);}.cls-20_coach-85{fill:url(#linear-gradient-6-coach-85);}.cls-21_coach-85{fill:#212741;}.cls-22_coach-85{fill:#231f20;}.cls-23_coach-85{fill:#c14834;}.cls-25_coach-85{fill:#ffb4a3;}</style><linearGradient id="linear-gradient-coach-85" x1="310.58" y1="2025.29" x2="354.27" y2="1615.97" gradientTransform="translate(-39.7 2298.63) scale(1 -1)" gradientUnits="userSpaceOnUse"><stop offset="0" stop-color="#231f20"/><stop offset=".08" stop-color="#231f20" stop-opacity=".69"/><stop offset=".21" stop-color="#231f20" stop-opacity=".32"/><stop offset="1" stop-color="#231f20" stop-opacity="0"/></linearGradient><linearGradient id="linear-gradient-2-coach-85" x1="-657.27" y1="1770.69" x2="-464.69" y2="1616.87" gradientTransform="translate(-272.37 1939.49) rotate(-180) scale(1.09 1)" gradientUnits="userSpaceOnUse"><stop offset="0" stop-color="#fff"/><stop offset="1" stop-color="#cbcbcb"/></linearGradient><linearGradient id="linear-gradient-3-coach-85" x1="-551.47" y1="1830.47" x2="-551.58" y2="1817.59" gradientTransform="translate(-272.37 1939.49) rotate(-180) scale(1.09 1)" xlink:href="#linear-gradient-2-coach-85"/><linearGradient id="linear-gradient-4-coach-85" x1="-538.7" y1="1827.85" x2="-537.98" y2="1818.43" gradientTransform="translate(-290.42 1934.57) rotate(-179.47) scale(1.09 1) skewX(-.04)" xlink:href="#linear-gradient-2-coach-85"/><linearGradient id="linear-gradient-5-coach-85" x1="-1435.41" y1="2038.81" x2="-1596.25" y2="1901.79" gradientTransform="translate(1550.9 2298.63) scale(1 -1)" gradientUnits="userSpaceOnUse"><stop offset="0" stop-color="#231f20"/><stop offset=".13" stop-color="#231f20" stop-opacity=".69"/><stop offset=".25" stop-color="#231f20" stop-opacity=".32"/><stop offset="1" stop-color="#231f20" stop-opacity="0"/></linearGradient><linearGradient id="linear-gradient-6-coach-85" x1="15.85" y1="1919.12" x2="258.06" y2="2142.93" gradientTransform="translate(-39.7 2298.63) scale(1 -1)" xlink:href="#linear-gradient-5-coach-85"/><linearGradient id="linear-gradient-7-coach-85" x1="192.41" y1="2092.22" x2="240.69" y2="1686.34" xlink:href="#linear-gradient-coach-85"/><linearGradient id="linear-gradient-8-coach-85" x1="192.41" y1="2054.64" x2="240.7" y2="1648.77" xlink:href="#linear-gradient-coach-85"/><linearGradient id="linear-gradient-9-coach-85" x1="422.93" y1="2108.47" x2="373.86" y2="1945.58" xlink:href="#linear-gradient-coach-85"/><linearGradient id="linear-gradient-10-coach-85" x1="-491.8" y1="1975.7" x2="-363.42" y2="1899.37" gradientTransform="translate(-19.83 2298.63) rotate(-180)" xlink:href="#linear-gradient-coach-85"/><linearGradient id="linear-gradient-11-coach-85" x1="-441.84" y1="1982.37" x2="-510.43" y2="1923.58" gradientTransform="translate(-19.83 2298.63) rotate(-180)" xlink:href="#linear-gradient-coach-85"/><linearGradient id="linear-gradient-12-coach-85" x1="-420.9" y1="2017.29" x2="-438.04" y2="2070.23" gradientTransform="translate(-19.83 2298.63) rotate(-180)" xlink:href="#linear-gradient-coach-85"/><linearGradient id="linear-gradient-13-coach-85" x1="-459.91" y1="2020.26" x2="-485.3" y2="1966.09" gradientTransform="translate(-19.83 2298.63) rotate(-180)" xlink:href="#linear-gradient-coach-85"/><linearGradient id="linear-gradient-14-coach-85" x1="-466.16" y1="1953.15" x2="-418.85" y2="1942.51" gradientTransform="translate(-19.83 2298.63) rotate(-180)" xlink:href="#linear-gradient-coach-85"/><linearGradient id="linear-gradient-15-coach-85" x1="-432.56" y1="2047.67" x2="-525.92" y2="1997.87" gradientTransform="translate(-19.83 2298.63) rotate(-180)" xlink:href="#linear-gradient-coach-85"/><linearGradient id="linear-gradient-16-coach-85" x1="210.94" y1="2028.16" x2="242.93" y2="2062.46" xlink:href="#linear-gradient-coach-85"/><linearGradient id="linear-gradient-17-coach-85" x1="274.84" y1="1990.79" x2="190.72" y2="1966.27" xlink:href="#linear-gradient-coach-85"/><linearGradient id="linear-gradient-18-coach-85" x1="173.77" y1="2033.83" x2="276.13" y2="1993.79" xlink:href="#linear-gradient-coach-85"/><linearGradient id="linear-gradient-19-coach-85" x1="225.98" y1="2022.49" x2="283.74" y2="2102.73" gradientTransform="translate(-31 2323.65) scale(1 -1)" xlink:href="#linear-gradient-coach-85"/></defs><g id="background_coach-85"><path class="cls-2_coach-85 targetColor" d="M218.12,102.86c-27.2,22.69-49.02,51.52-77.93,71.92-26.72,18.86-58.96,30.19-81.95,53.44-40.84,41.31-40.78,107.81.13,149.05,27.49,27.71,68.14,38.14,107.1,40.21,38.96,2.06,78.06-3.07,117.03-.98,36.88,1.98,73.6,10.43,110.39,7.62,36.8-2.82,75.82-20.14,90.38-54.08,16.1-37.55-2.35-79.8-15.07-118.63-9.62-29.35-15.97-59.67-18.94-90.41-4.42-45.98-12.53-109.83-70.4-112.38-58.42-2.21-115.61,17.09-160.74,54.25Z" style="fill: rgb(31, 40, 140);"/><path class="cls-1_coach-85" d="M384.16,375.34c-87.37,11.2-175.89,2.59-263.99,2.85-6.4,0-15.12,2.66-14.11,8.94,51.2,12.1,104.36,13.04,157,13.94l95.79,1.6c21.9.37,43.82.74,65.6-.5,8.14-.46,16.5-1.22,23.84-4.8,20.62-10.08,10.4-23.34-7.39-25.6-18.8-2.37-38.03,1.17-56.73,3.57Z"/></g><g id="phone_coach-85"><path class="cls-26_coach-85 targetColor" d="M256.66,131.37v237.11c0,10.26,9.09,18.54,20.29,18.53l108.41-.16c11.2,0,20.29-8.35,20.29-18.59v-237.12c0-10.26-9.09-18.56-20.29-18.53l-108.41.16c-11.2.02-20.29,8.35-20.29,18.61ZM266.99,131.53c0-6.32,5.6-11.46,12.51-11.46h15.28v1.41c.2,4.22,3.77,7.49,8,7.31l58.28-.1c4.22.16,7.79-3.11,8-7.33v-1.41h15.78c6.91,0,12.51,5.1,12.51,11.42v236.39c0,6.32-5.6,11.44-12.51,11.46l-105.34.18c-6.91,0-12.51-5.1-12.51-11.42v-236.45Z" style="fill: rgb(31, 40, 140);"/><path class="cls-24_coach-85" d="M251.55,136.24v237.12c0,10.26,9.09,18.54,20.29,18.53l108.43-.18c11.2,0,20.29-8.34,20.29-18.59v-237.11c0-10.26-9.09-18.56-20.29-18.54l-108.43.18c-11.2.02-20.29,8.35-20.29,18.59ZM261.91,136.41c0-6.4,5.58-11.46,12.5-11.47h15.28v1.41c.2,4.22,3.78,7.49,8,7.3h58.27c4.23.16,7.8-3.11,8-7.34v-1.39h15.79c6.9,0,12.5,5.1,12.5,11.42v236.32c0,6.3-5.6,11.44-12.5,11.46l-105.26.22c-6.91,0-12.5-5.1-12.5-11.42l-.08-236.5Z"/><path class="cls-27_coach-85" d="M261.91,136.35v236.5c0,6.4,5.58,11.44,12.5,11.42l105.35-.16c6.9,0,12.5-5.15,12.5-11.46v-236.45c0-6.4-5.6-11.44-12.5-11.42h-15.79v1.39c-.2,4.23-3.77,7.51-8,7.34h-58.27c-4.22.19-7.8-3.07-8-7.3v-1.41h-15.22c-6.99.14-12.58,5.28-12.58,11.54Z"/><path class="cls-26_coach-85 targetColor" d="M261.91,136.35v236.5c0,6.4,5.58,11.44,12.5,11.42l105.35-.16c6.9,0,12.5-5.15,12.5-11.46v-236.45c0-6.4-5.6-11.44-12.5-11.42h-15.79v1.39c-.2,4.23-3.77,7.51-8,7.34h-58.27c-4.22.19-7.8-3.07-8-7.3v-1.41h-15.22c-6.99.14-12.58,5.28-12.58,11.54Z" style="fill: rgb(31, 40, 140);"/><rect class="cls-13_coach-85" x="283.44" y="197.59" width="93.51" height="22.85"/><rect class="cls-13_coach-85" x="283.44" y="163.87" width="93.51" height="22.85"/><polygon class="cls-15_coach-85" points="318.9 128.46 338.91 128.43 338.91 126.8 318.9 126.83 318.9 128.46"/><ellipse class="cls-14_coach-85" cx="313.61" cy="127.4" rx="2.18" ry="2" transform="translate(-1.23 3.07) rotate(-.56)"/></g><g id="book_coach-85"><path class="cls-26_coach-85 targetColor" d="M5.22,263.57c.1,4.02,2.1,7.71,4.06,11.2,8.99,15.89,19.09,31.55,33.04,43.34,20.48,17.34,47.33,24.81,73.24,31.82-2.32-1.14-5.12-13.07-6.14-15.7-2-5.15-3.87-10.34-5.81-15.5-3.04-8.18-9.44-14.75-15.66-20.8-14.11-13.57-31.22-23.61-49.95-29.31-10.63-3.22-21.67-4.92-32.78-5.06Z" style="fill: rgb(31, 40, 140);"/><path class="cls-19_coach-85" d="M5.22,263.57c.1,4.02,2.1,7.71,4.06,11.2,8.99,15.89,19.09,31.55,33.04,43.34,20.48,17.34,47.33,24.81,73.24,31.82-2.32-1.14-5.12-13.07-6.14-15.7-2-5.15-3.87-10.34-5.81-15.5-3.04-8.18-9.44-14.75-15.66-20.8-14.11-13.57-31.22-23.61-49.95-29.31-10.63-3.22-21.67-4.92-32.78-5.06Z"/><path class="cls-26_coach-85 targetColor" d="M106.62,272.47c-2.11-14.78-4.29-29.79-10.24-43.49-5.95-13.7-16.27-26.17-30.27-31.39-.39,21.18-.8,42.37-1.22,63.55-.22,12.24-.43,24.7,3.07,36.43,6.14,20.53,27.52,44.64,48.13,51.42,3.06-9.87-2.06-24.81-3.52-35.07l-5.95-41.45Z" style="fill: rgb(31, 40, 140);"/><path class="cls-20_coach-85" d="M106.62,272.47c-2.11-14.78-4.29-29.79-10.24-43.49-5.95-13.7-16.27-26.17-30.27-31.39-.39,21.18-.8,42.37-1.22,63.55-.22,12.24-.43,24.7,3.07,36.43,6.14,20.53,27.52,44.64,48.13,51.42,3.06-9.87-2.06-24.81-3.52-35.07l-5.95-41.45Z"/><path class="cls-26_coach-85 targetColor" d="M265.3,320.53c-2.95,2.94-4.61,6.94-4.61,11.1-.01,2.2.44,4.39,1.34,6.4,1.92,4.37,5.72,7.64,10.34,8.86v3.6H83.16c-10.38-.3-18.55-8.96-18.24-19.34.29-9.95,8.29-17.95,18.24-18.24h189.21v3.6c-2.67.69-5.11,2.08-7.07,4.02Z" style="fill: rgb(31, 40, 140);"/><path class="cls-18_coach-85" d="M272.37,346.83v3.6H83.16c-8.07.01-15.24-5.14-17.81-12.8,7.18,1.26,52.69,8.51,78.01-5.94l118.67,6.4c1.95,4.33,5.75,7.54,10.34,8.74Z"/><path class="cls-24_coach-85" d="M265.3,320.53c-6.14,6.13-6.15,16.08-.02,22.22,1.96,1.96,4.41,3.37,7.09,4.08v.53h-113.27c-8.68,0-15.71-7.03-15.71-15.71,0-8.68,7.03-15.71,15.71-15.71h113.28v.51c-2.68.71-5.12,2.12-7.07,4.08Z"/><path class="cls-26_coach-85 targetColor" d="M265.3,358.1c-2.98,2.96-4.64,7-4.61,11.2,0,2.18.46,4.33,1.34,6.32,1.91,4.38,5.72,7.64,10.34,8.86v3.6H83.16c-10.37,0-18.79-8.4-18.79-18.77,0-10.37,8.4-18.79,18.77-18.79h189.23v3.58c-2.67.69-5.1,2.07-7.07,4Z" style="fill: rgb(31, 40, 140);"/><path class="cls-16_coach-85" d="M272.37,384.34v3.6H83.16c-8.07.01-15.24-5.14-17.81-12.8,7.18,1.26,52.69,8.51,78.01-5.92l118.67,6.32c1.93,4.35,5.73,7.59,10.34,8.8Z"/><path class="cls-24_coach-85" d="M265.3,358.1c-6.11,6.16-6.07,16.11.09,22.22,1.94,1.92,4.35,3.31,6.99,4.02v.53h-113.27c-8.68,0-15.71-7.03-15.71-15.71,0-8.68,7.03-15.71,15.71-15.71h113.28v.51c-2.68.73-5.12,2.16-7.07,4.14Z"/></g><g id="character_1_coach-85"><path class="cls-17_coach-85" d="M330.67,210.09v1.46l49.41,35.93s.91,8.46,2.24,9.47c2.08,1.07,4.26,1.93,6.51,2.56v5.62l11.79,8.18,3.73,1.28v-11.84l-16.13-12.8-5.04-5.76-1.95,1.6-50.56-35.69Z"/><path class="cls-25_coach-85" d="M394.25,245.46h-.11c-.5-.37-.95-.81-1.33-1.31-1.15-1.45-2.55-2.67-4.14-3.6-.66-.38-1.6-.69-2.11-.11-.18.19-.26.46-.45.64-.45.42-1.17.14-1.68-.18s-1.17-.67-1.7-.35c-.32.25-.5.64-.48,1.04.06.93.36,1.82.86,2.61.76,1.53,1.64,3.01,2.62,4.42.49.86,1.42,1.38,2.42,1.34,1.52,0,3.02.38,4.35,1.12.25.24.57.4.91.46.98.1,1.31-2.91,1.47-3.6.08-.34.51-1.46.35-1.79s-.67-.51-.99-.69Z"/><polygon class="cls-26_coach-85 targetColor" points="419.79 304.6 421.34 381.42 431.75 381.42 434.76 320.37 441.32 381.42 453.26 383.42 455.99 302.08 419.79 304.6" style="fill: rgb(31, 40, 140);"/><polygon class="cls-6_coach-85" points="419.79 304.6 421.34 381.42 431.75 381.42 434.76 320.37 441.32 381.42 453.26 383.42 455.99 302.08 419.79 304.6"/><polygon class="cls-3_coach-85" points="446.12 380.22 446.12 309.01 455.99 302.08 452.66 381.42 446.12 380.22"/><path class="cls-26_coach-85 targetColor" d="M391.44,254.3l.22.19h0c2.22,1.92,19.71,16.98,22.4,16.1,3.61-1.63,7.09-3.52,10.43-5.65l.88-.53v-21.15l-10.98,13.09-19.41-11.44-3.55,9.39Z" style="fill: rgb(31, 40, 140);"/><path class="cls-4_coach-85" d="M391.66,254.49h0c2.22,1.92,19.71,16.98,22.4,16.1,3.61-1.63,7.09-3.52,10.43-5.65.11-.86.15-1.73.11-2.59,0-1.87.66-6.4-2.22-5.31-2.34.9-4.03,3.92-6.4,5.06-.74.66-1.66,1.1-2.64,1.25-1.6.1-2.88-1.2-4-2.34-3.9-4.01-8.48-7.31-13.52-9.73-.22-.13-.47-.2-.72-.19-.29.07-.54.24-.72.48-.9.99-1.81,1.97-2.72,2.93Z"/><path class="cls-26_coach-85 targetColor" d="M448.26,236.63c2.78,1.39,5.49,2.92,8.11,4.59,5.57,3.57,4.58,5.22,3.55,11.38-2.16,13.17-3.23,26.49-3.2,39.84.22,3.22-.02,6.45-.69,9.6-.58,1.98-1.9,3.65-2.06,5.74-8.59,1.18-28.25,5.6-34.14-3.2-5.63-8.45,4.51-38.4,2.62-51.81s15.39-14.83,15.39-14.83l10.42-1.31Z" style="fill: rgb(31, 40, 140);"/><path class="cls-5_coach-85" d="M436.42,298.21l15.57,10.51,2.54-3.2c1.51-5.41,2.21-11.02,2.08-16.64-.37-8.38,0-5.39,0-5.39l-21.9,13.86,1.71.86Z"/><path class="cls-25_coach-85" d="M428.67,223.64c-.01.89.04,1.78.16,2.66.41,1.83,1.13,3.58,2.13,5.17.26.56.64,1.05,1.12,1.44.99.49,2.14.58,3.2.26.25-.06.52-.06.77,0,.61.24.69,1.07.66,1.73l-.18,3.06c-.06.42,0,.84.21,1.22.21.26.5.44.82.53,2.3.75,4.83.18,6.58-1.49.43-.4.77-.87,1.02-1.39.21-.51.34-1.05.38-1.6.37-2.93,0-5.89.27-8.82.38-2.42.45-4.88.21-7.31-.47-2.65-2.24-4.88-4.7-5.95-2.52-.8-5.24-.74-7.73.18-1.22.34-2.42.75-3.6,1.22-.57.15-1.07.51-1.39,1.01-.46.94,0,2.3,0,3.31.11,1.62.08,3.22.08,4.8Z"/><path class="cls-21_coach-85" d="M449.19,212.7c-2.3-3.46-7.68-3.52-11.42-4.02-.54-.03-1.05-.2-1.5-.5-.45-.33-.55-.96-.22-1.41,0-.01.02-.02.02-.03l-2.85,1.6v-2.11c-.98.77-2.01,1.47-3.09,2.1v-1.89c-2.57,2-3.67,5.36-2.78,8.5.91,3.2,5.74,3.54,8.45,3.39.75-.06,1.49-.06,2.24,0,.74.08,1.43.42,1.95.96.6,1.02.94,2.17.98,3.34,0,.07.04.14.08.19.05,0,.1,0,.14,0,.83.1,1.6-.88,2.37-.54.38.21.62.61.62,1.04.06.51-.01,1.03-.21,1.5-.1.18-.17.38-.19.59,0,.14.04.27.1.4l.53,1.46c.14.54.46,1.01.91,1.33.69.21,1.44.06,2-.4.42-.21.78-.51,1.07-.88.19-.33.32-.68.38-1.06.7-3.62.99-7.32.86-11.01.03-.88-.12-1.75-.45-2.56Z"/><path class="cls-24_coach-85" d="M445.54,235.24s2.38,1.6,2.32,3.47c-.06,1.87-12.99,38.24-12.99,38.24,0,0-.29-34.86,0-36.48.44-1.58,1.02-3.11,1.74-4.58,0,0,5.17,3.74,8.93-.66Z"/><polygon class="cls-21_coach-85" points="441.32 238.52 442.18 241.34 440.73 242.57 440.02 262.33 434.89 276.93 434.76 262.09 439.18 242.47 437.56 239.7 439.69 238.52 441.32 238.52"/><path class="cls-26_coach-85 targetColor" d="M431.75,289.94c1.52,1.93,3.25,3.68,5.15,5.23l1.18.94c.43.37.96.62,1.52.7.39,0,.77-.1,1.12-.27,7.53-2.93,14.9-6.24,22.09-9.9,3.02-1.6,6.32-3.57,6.96-6.9.17-1.15.14-2.33-.08-3.47-1.14-8.41-3.34-16.64-6.54-24.49-.91-2.22-2.03-6.51-4.42-8h0l-.29-.14-.34-.16c-3.2-1.15-5.98,2.05-6.86,4.8-1,3.93-.87,8.07.37,11.94,1.24,3.84,2.15,7.77,2.74,11.76.08.54.03,1.09-.16,1.6-.3.51-.73.94-1.23,1.25l-21.21,15.12Z" style="fill: rgb(31, 40, 140);"/><path class="cls-21_coach-85" d="M431.75,381.42l-.56,5.66-3.57.66-1.6-1.41-2.75,2.16h-10.7s-2.72-4.69,3.2-6.29l5.9-1.6,10.08.82Z"/><path class="cls-21_coach-85" d="M452.65,381.42l-.56,5.66-3.57.66-1.6-1.41-2.72,2.16h-10.7s-2.72-4.69,3.2-6.29l5.9-1.6,10.05.82Z"/><polygon class="cls-12_coach-85" points="434.76 320.37 429.98 316.48 426.6 380.61 431.75 381.42 434.76 320.37"/><path class="cls-10_coach-85" d="M436.9,295.17l1.18.94c.43.37.96.62,1.52.7.39,0,.77-.1,1.12-.27,7.53-2.93,14.9-6.24,22.09-9.9,3.02-1.6,6.32-3.57,6.96-6.9.17-1.15.14-2.33-.08-3.47-1.14-8.41-3.34-16.64-6.54-24.49-.91-2.22-2.03-6.51-4.42-8h0l-.29-.14-.34-.16c-3.08-.04-5.85,1.89-6.86,4.8,0,0,11.39,23.29,10.9,26.81-.5,3.52-24.4,14.85-24.4,14.85l-.85,5.23Z"/><path class="cls-25_coach-85" d="M426.47,291.89c-.62.16-1.21.45-1.71.85-.5.43-.71,1.1-.54,1.73.19.36.41.7.66,1.02.3.54.35,1.23.62,1.79.55.85,1.4,1.47,2.38,1.73,2.85,1.02,6.32,1.17,8.62-.8,1.6-1.42,5.02-7.33,1.33-8.22-1.57-.1-3.15.07-4.67.48-2.26.29-4.5.77-6.69,1.42Z"/><polygon class="cls-24_coach-85" points="331.15 209.56 330.67 210.09 400.04 252.63 400.55 251.48 331.15 209.56"/><path class="cls-25_coach-85" d="M382.28,241.94c-.11-.52-.03-1.06.24-1.52.37-.41.92-.63,1.47-.59.26-.02.53,0,.78.08.58.21.91.78,1.28,1.28.12.15.25.29.4.42.2.13.42.24.66.32.33.1.64.25.93.43.44.34.81.76,1.09,1.25.27.39.5.8.69,1.23.21.56.3,1.16.27,1.76.02.2-.03.41-.14.58-.15.16-.36.26-.58.27-.88.07-1.76-.15-2.5-.64-.75-.45-1.42-1.04-2.13-1.6-1.27-.67-2.17-1.86-2.46-3.26Z"/></g><g id="character_2_coach-85"><path class="cls-25_coach-85" d="M186.34,242.3c-.72,0-1.17-.77-1.34-1.47-.06-.72-.37-1.4-.86-1.92-.29-.22-.7-.37-.82-.72-.04-.16-.04-.32,0-.48.4-1.65,1.51-3.03,3.04-3.78.77.67,1.94.66,2.67,1.36.77.87,1.37,1.88,1.76,2.98l7.17,17.02,2.24,5.31c.86,1.7,1.35,3.56,1.42,5.46.05,1.95-1.14,3.72-2.98,4.4-1.24.27-2.54-.04-3.54-.83-.98-.8-1.75-1.82-2.27-2.98-1.86-3.74-2.13-8-2.69-12.21-.56-4.21-.96-9.07-3.81-12.14Z"/><path class="cls-25_coach-85" d="M185.65,255.67c-.35-.29-.81-.41-1.26-.34-.23.09-.44.24-.59.43-1.56,1.83-2.16,4.3-1.6,6.64.17,1,.62,1.94,1.31,2.69.76.67,1.65,1.17,2.61,1.49l7.71,3.07c.58.29,1.24.42,1.89.35.68-.2,1.26-.66,1.6-1.28.99-1.57,1.22-3.49.64-5.25-1.44-4.5-8.61-5.63-12.3-7.81Z"/><path class="cls-26_coach-85 targetColor" d="M177.59,245.34l6.13,5.82,4.46,4.24c1.01.96,2.29,1.82,2.7,3.2.51,1.94.33,4-.51,5.82-.95,1.94-1.66,3.98-2.1,6.1,0-.77-2.45-2.54-2.99-2.98-1.18-.93-2.43-1.74-3.62-2.66s-2.66-1.86-3.07-3.04c-.12-.76-.16-1.53-.11-2.3l-.78-12.32-.11-1.89Z" style="fill: rgb(31, 40, 140);"/><path class="cls-8_coach-85" d="M177.59,245.34l6.13,5.82,4.46,4.24c1.01.96,2.29,1.82,2.7,3.2.51,1.94.33,4-.51,5.82-.95,1.94-1.66,3.98-2.1,6.1,0-.77-2.45-2.54-2.99-2.98-1.18-.93-2.43-1.74-3.62-2.66s-2.66-1.86-3.07-3.04c-.12-.76-.16-1.53-.11-2.3l-.78-12.32-.11-1.89Z"/><path class="cls-25_coach-85" d="M243.33,342.03c.68.29,1.41.42,2.14.38l11.2.27c.3.02.6-.02.9-.1.67-.34,1.05-1.07.94-1.81-.31-1.95-1.84-3.48-3.79-3.79-1.9-.29-3.82-.4-5.74-.35-1.58,0-3.07-.75-4.02-2.02-.88-1.1-1.94-2.24-3.39-1.18-2.29,1.74-.42,7.42,1.76,8.59Z"/><path class="cls-22_coach-85" d="M187.16,291.38s31.28-.98,39.05,2.29c7.78,3.26,19.85,40.83,19.85,40.83l-6.53,2.5s-11.1-23.39-14.75-25.49c-3.65-2.1-42.73-9.78-42.73-9.78,0,0-2.99-2.29,5.1-10.35Z"/><path class="cls-7_coach-85" d="M187.16,291.38s31.28-.98,39.05,2.29c7.78,3.26,19.85,40.83,19.85,40.83l-6.53,2.5s-11.1-23.39-14.75-25.49c-3.65-2.1-42.73-9.78-42.73-9.78,0,0-2.99-2.29,5.1-10.35Z"/><path class="cls-25_coach-85" d="M234.76,353.01c.61,0,1.22.1,1.81.29.59.2,1.02.72,1.09,1.34-.05.61-.39,1.16-.93,1.46-.51.32-1.09.51-1.6.85-.43.36-.88.68-1.36.96-.86.25-1.78.21-2.62-.11-3.92-.95-7.98-1.2-11.98-.75-.39.05-.79.05-1.18,0-1.16-.34-2.06-1.24-2.38-2.4-.8-2.44-1.04-5.03-.7-7.58,0-.28.07-.55.21-.8.15-.21.36-.37.59-.46,3.81-1.89,5.89,1.87,8.67,3.7,3.1,2.07,6.68,3.28,10.4,3.52Z"/><path class="cls-22_coach-85" d="M165.94,293.33s-.94,14.21,11.74,18.49c8.8,2.96,18.91,2.42,28.01,1.6,1.6-.14,3.36-.53,4.99-.51,3.2,0,2.54,2.11,2.51,4.8,0,6.8-.06,13.6-.18,20.4-.29,3.57.22,7.15,1.49,10.5l9.36-2.5c-.25-9.85.32-19.7,1.7-29.45.61-4.22,1.52-9.5-1.31-13.1-2.75-3.22-6.38-5.57-10.45-6.77l-25.34-8-22.53,4.54Z"/><path class="cls-25_coach-85" d="M184.2,228.1c.46.78,1.42,1.25,1.74,2.13.32.88-.35,2.11-.74,3.2-.51,1.46-.35,3.09-.86,4.56-.09.32-.27.61-.51.83-.24.15-.5.26-.78.3-1.08.22-2.19.29-3.3.19-.21-.07-.43-.07-.64,0-.16.15-.26.35-.29.56-.64,2.77-.59,5.66.13,8.42.24.9.5,2.02-.18,2.66-.23.23-.53.38-.85.43-2.1.51-4.11-1.04-5.54-2.66-1.25-1.47-2.33-3.08-3.2-4.8-.29-.49-.47-1.04-.56-1.6-.04-.67.05-1.34.26-1.98.59-2.29.96-4.64,1.09-7.01.16-3.02,0-6.18,1.09-8.98.35-.96.99-1.78,1.84-2.35,1-.46,2.11-.64,3.2-.53,2.22-.15,4.41.57,6.11,2,.5.53,1.39,3.65,1.98,4.62Z"/><path class="cls-26_coach-85 targetColor" d="M187.16,291.38c-1.42,1.24-3.09,2.15-4.9,2.67-1.28.45-2.59.86-3.92,1.28-1.88.57-3.72,1.27-5.5,2.1-1.89.62-3.3,1.09-4.37,1.41-.97.34-1.95.64-2.94.88.1-.06.2-.1.3-.14,0,0-.64-2.83-1.6-6.8-1.6-7.3-4.29-18.38-5.58-22.53-.61-2.62-.77-5.33-.46-8,.66-8.8,4.14-20.29,10.54-19.55,0,0,9.06,4.69,11.79,8.34,2.5,3.38,5.82,5.92,5.86,10.48.08,6.4-2.59,12.4-2.08,19.02,0,.97.25,1.92.7,2.77.77,1.2,2.29,1.78,3.04,2.98.87,1.71.51,3.79-.88,5.1Z" style="fill: rgb(31, 40, 140);"/><path class="cls-11_coach-85" d="M177.14,290.12c1.06,1.52,1.5,3.39,1.2,5.22-.15.62-.49,1.17-.96,1.6-.77.57-1.66.94-2.61,1.09-2.07.47-4.18.75-6.3.82h-2.26c-.06-2.17-.73-4.28-1.94-6.1-1.6-7.3-4.29-18.38-5.58-22.53-.61-2.62-.77-5.33-.46-8,1.08-1.35,1.97-2.83,2.66-4.42.48-1.25,1.28-2.61,2.62-2.7s2.13.9,2.86,1.82c4.58,5.84,7.92,13.06,11.94,19.33.21.27.32.59.34.93-.09.35-.32.66-.62.85-1.73,1.44-3.57,3.2-3.76,5.41-.19,2.21,1.57,4.59,2.88,6.69Z"/><path class="cls-25_coach-85" d="M172.57,283c.29.87.72,1.68,1.28,2.4,1.48,1.42,3.44,2.24,5.49,2.27,2.35.24,4.71.37,7.07.37,1.6,0,4.13-.77,5.47.51.32.32.56.7.9,1.01.88.68,1.99,1.01,3.1.91,2.42.04,4.84-.28,7.17-.96.3-.02.52-.29.5-.58,0-.11-.05-.21-.12-.3-.47-1.4-1.18-2.72-2.08-3.89-.92-1.18-2.33-1.88-3.82-1.9-.77.09-1.52.25-2.26.48-2.24.32-4.52.17-6.69-.45-2.53-.34-4.97-1.18-7.18-2.46-.61-.5-1.1-1.12-1.46-1.82-1.01-1.9-1.81-3.9-2.4-5.97-.24-.8-.59-1.71-1.39-1.98-.59-.13-1.22-.02-1.73.3-1.96.9-3.52,2.5-4.35,4.5-.59,2.05,1.68,5.57,2.5,7.57Z"/><path class="cls-26_coach-85 targetColor" d="M172.28,254.58s5.71,15.46,6.83,16.59c1.12,1.14-11.01,8-11.01,8,0,0-7.9-15.04-7.54-21.55.37-6.51,7.25-9.18,11.71-3.04Z" style="fill: rgb(31, 40, 140);"/><path class="cls-23_coach-85" d="M181.29,223.24c-.18,1.49-.89,2.86-2,3.87-1.07,1.01-2.4,1.68-3.5,2.66-1.2.88-1.86,2.32-1.76,3.81-.88-.35-1.89-.02-2.4.78-.21.54-.11,1.15.26,1.6.4.46.99.71,1.6.67-1.15.46-2.13,1.25-2.83,2.27-1.78,2.64-3.84,4.62-3.2,8.14.48,2.35,1.74,4.48,2.42,6.78,2.18,7.48-2.12,15.31-9.6,17.49-1.56.45-3.18.63-4.8.54-4.26-.24-8.69-3.01-9.38-7.22-.77-4.8,3.33-9.04,3.79-13.86.24-2.61-.59-5.3,0-7.84.88-3.52,4.26-5.7,6.82-8.26,5.49-5.52,5.52-14.64,14.18-16.96,4.03-.98,10.82.21,10.42,5.5Z"/><polygon class="cls-26_coach-85 targetColor" points="198.25 288.5 208.34 262.82 235.03 262.82 221.6 293.67 180.73 292.13 182.04 289.65 198.25 288.5" style="fill: rgb(31, 40, 140);"/><polygon class="cls-9_coach-85" points="198.25 288.5 208.34 262.82 235.03 262.82 221.6 293.67 180.73 292.13 182.04 289.65 198.25 288.5"/><path class="cls-26_coach-85 targetColor" d="M255.28,336.34c-1.29-.52-2.75-.33-3.86.51-.54.54-.82,1.3-1.36,1.84-.78.61-1.73.93-2.72.93-1.56.11-3.13.03-4.67-.26-.25-.06-.52-.06-.77,0-.42.17-.68.59-.66,1.04.03.44.15.86.35,1.25.23.63.63,1.19,1.17,1.6.54.27,1.14.4,1.74.37,4.15.2,8.3.1,12.43-.29,1.04-.03,2.03-.41,2.82-1.09,2.3-2.37-2.69-5.33-4.48-5.9Z" style="fill: rgb(31, 40, 140);"/><path class="cls-26_coach-85 targetColor" d="M229.36,350.74h-1.6c-.2-.03-.4-.03-.59,0-.38.16-.69.43-.91.77-.53.67-1.01,1.6-1.81,1.94-.73.3-1.5.49-2.29.56-1.77.15-3.56.03-5.3-.37-.25-.06-.52-.06-.77,0-.42.17-.68.59-.66,1.04.03.44.15.86.35,1.25.43,1.54,1.87,2.59,3.47,2.51h6.53c2.02,0,4.03,0,6.05-.08,1.36-.02,2.72-.22,4.03-.58.91-.23,1.72-.74,2.32-1.46.58-.76.58-1.82,0-2.58-.4-.38-.9-.65-1.44-.78l-4.24-1.47c-.81-.31-1.63-.54-2.48-.7l-.67-.05Z" style="fill: rgb(31, 40, 140);"/></g></svg>