<svg id="_0573_team_building" xmlns="http://www.w3.org/2000/svg" viewBox="0 0 500 500" data-imageid="team-building-98" imageName="Team Building" class="illustrations_image" style="width: 166px;"><defs><style>.cls-1_team-building-98{fill:#fff;}.cls-2_team-building-98{fill:#f4a28c;}.cls-3_team-building-98{fill:#a5a5a5;}.cls-4_team-building-98{fill:#ce8172;}.cls-5_team-building-98{fill:#e6e6e6;}.cls-6_team-building-98{opacity:.03;}.cls-6_team-building-98,.cls-7_team-building-98,.cls-8_team-building-98,.cls-9_team-building-98,.cls-10_team-building-98,.cls-11_team-building-98{fill:none;}.cls-7_team-building-98{opacity:.09;}.cls-8_team-building-98{opacity:.08;}.cls-9_team-building-98{opacity:.36;}.cls-10_team-building-98{opacity:.31;}.cls-11_team-building-98{opacity:.3;}.cls-12_team-building-98{fill:#24285b;}.cls-13_team-building-98{fill:#000001;}.cls-14_team-building-98{fill:#ffd200;}.cls-15_team-building-98{fill:#68e1fd;}</style></defs><g id="bg_team-building-98"><g class="cls-11_team-building-98"><path class="cls-5_team-building-98" d="m114.83,28.85c-48.37,16.51-86.46,55.51-92.27,127.54-4.89,60.69,7.52,164,89.77,175.53,166.28,23.31,343.42,46.74,366.89-57.8,15.91-70.86,20.67-197.79-69.19-237.43C349.09,9.81,218.49-6.54,114.83,28.85Z"/></g></g><g id="sd_team-building-98" class="cls-6_team-building-98"><ellipse class="cls-13_team-building-98" cx="252.95" cy="458.54" rx="235.43" ry="32.89"/></g><g id="puzzle_team-building-98"><path class="cls-5_team-building-98" d="m355.66,328.45c-5.18-4.02-3.7-9.86-3.1-11.37,3.6-3.38,5.83-8.09,5.83-13.28,0-10.31-8.75-18.65-19.56-18.65s-19.57,8.34-19.57,18.65c0,5.19,2.23,9.9,5.83,13.28.61,1.53,2.1,7.35-3.1,11.37h-46.74v46.75c4.02,5.2,9.85,3.71,11.38,3.1,3.38-3.6,8.09-5.83,13.28-5.83,10.31,0,18.65,8.77,18.65,19.57s-8.34,19.56-18.65,19.56c-5.19,0-9.9-2.23-13.28-5.83-1.51-.61-7.36-2.09-11.38,3.1v46.75h127.15v-127.17h-46.75Z"/><path class="cls-3_team-building-98" d="m318.56,392.05c0,10.8-8.34,19.56-18.65,19.56-5.19,0-9.9-2.23-13.28-5.83-1.51-.61-7.36-2.09-11.38,3.1v46.75h-127.17v-127.17h47.04c4.83,4.01,3.4,9.65,2.81,11.13-3.6,3.38-5.83,8.09-5.83,13.28,0,10.31,8.75,18.65,19.56,18.65s19.57-8.34,19.57-18.65c0-5.19-2.23-9.9-5.83-13.28-.59-1.49-2.04-7.13,2.81-11.13h47.04v46.75c4.02,5.2,9.85,3.71,11.38,3.1,3.38-3.6,8.09-5.83,13.28-5.83,10.31,0,18.65,8.77,18.65,19.57Z"/></g><g id="person1_team-building-98"><path class="cls-15_team-building-98 targetColor" d="m139.11,447.62s5.19,5.12,10.81,2.7c5.62-2.42,9.73,2.36,5.58,6.42-4.14,4.06-19.82,4.23-19.82,4.23l-4.6-10.63,8.02-2.72Z" style="fill: rgb(253, 114, 2);"/><path class="cls-15_team-building-98 targetColor" d="m51.72,445.24s-2.55,7,1.7,11.57c4.25,4.57,1.59,10.38-3.54,7.87-5.13-2.51-11.19-17.74-11.19-17.74l7.61-8.49,5.42,6.8Z" style="fill: rgb(253, 114, 2);"/><path class="cls-12_team-building-98" d="m37.79,313.76s-5.49,22.84,4.06,34.07c9.54,11.23,24.14,64.45,0,91.06l9.54,9.46s41.81-22.47,29.88-103.47l29.85-31.11H37.79Z"/><path class="cls-12_team-building-98" d="m111.12,313.76l30.65,134.59-15.32,2.37s-30.65-92.24-50.89-111.16l35.56-25.79Z"/><path class="cls-15_team-building-98 targetColor" d="m118.25,195.42s31.96,13.62,27.07,63.54l-31.23-2.68,4.15-60.87Z" style="fill: rgb(253, 114, 2);"/><g class="cls-9_team-building-98"><path class="cls-1_team-building-98" d="m118.25,195.42s31.96,13.62,27.07,63.54l-31.23-2.68,4.15-60.87Z"/></g><polygon class="cls-2_team-building-98" points="84.99 152.66 76.13 183.9 93.69 187.55 93.09 163.35 84.99 152.66"/><g class="cls-10_team-building-98"><path class="cls-4_team-building-98" d="m93.45,168.64s-3.21-1.06-5.35-4.12c0,0-.45,5.93,5.34,12.52l.02-8.4Z"/></g><path class="cls-15_team-building-98 targetColor" d="m76.13,183.9l10.42,2.17s47.67,5.14,49.6,32.04c1.94,26.91-24.99,95.65-24.99,95.65H38.93s-57.87-136.97,37.2-129.86Z" style="fill: rgb(253, 114, 2);"/><path class="cls-5_team-building-98" d="m173.52,239.37c1.75,10.64,11.4,17.94,21.58,16.27,5.12-.84,9.41-3.81,12.16-7.91,1.36-.81,6.53-3.1,11.23.78l7.67,46.63-46.42,7.63c-4.13,4.74-1.79,10.06-.96,11.44,4.1,2.75,7.06,7.04,7.91,12.16,1.67,10.17-5.63,19.83-16.29,21.58-10.66,1.75-20.65-5.06-22.32-15.23-.84-5.12.6-10.13,3.6-14.05.34-1.55.84-7.36-4.58-10.53l-46.42,7.63-20.63-125.47,125.49-20.63,7.67,46.65c-3.22,5.14-8.85,4.67-10.39,4.3-3.92-3-8.93-4.44-14.05-3.6-10.17,1.67-16.99,11.66-15.23,22.34Z"/><path class="cls-2_team-building-98" d="m103.18,153.57s-.88,9.87-3.67,16.05c-1.13,2.5-4.12,3.63-6.61,2.47-3.09-1.45-6.85-4.3-7.02-9.65l-1.4-9.04s-.68-5.7,5.52-8.67c6.2-2.98,14.01,2.86,13.17,8.85Z"/><g class="cls-7_team-building-98"><path class="cls-13_team-building-98" d="m54.79,196.44s24.7,14.35,18.97,46.81-15.27,43.64,5.11,39.1c20.38-4.54,28.75-14.76,28.75-14.76,0,0,14.66,11.97,0,21.04-14.66,9.08-34.56,9.05-37.7,25.12h-30.99s-2.51-7.04-5.83-15.91c-3.33-8.87,21.69-101.41,21.69-101.41Z"/></g><path class="cls-14_team-building-98" d="m100.69,153.54c-1.72-.21-4.85-.78-8.87-2.29,0,0,2.3,4.79-1.59,8.93-3.88,4.14-8.47,1.22-8.47,1.22l2.39-12.5c.58-3.67,3.11-6.74,6.61-7.97,1.43-.5,3-.98,4.55-1.3,3.93-.82,9.48.75,11.65,4.25.93,1.51,1.25,3.39.85,5.11-.4,1.73-1.5,3.28-3,4.23-1.06.67-2.94.47-4.12.32Z"/><path class="cls-2_team-building-98" d="m91.33,160.08s.59-3.77-2.28-3.98c-2.87-.21-3.77,5.23-.02,6.42l2.3-2.44Z"/><path class="cls-2_team-building-98" d="m16.69,253.82s-4.07,41.71,16.41,44.03c15.46,1.76,40.24-6.97,55.38-11.28,6.55-1.87,9.74-2.74,14.76-7.34,6.03-5.51,14.41-9.44,7.9-14.68-11.56-9.31-19.76,6.63-19.76,6.63,0,0-14.79,4.53-29.65,4.94-8.09.22-14.12-7.42-12.04-15.24l3.83-14.36s-27.1-25.43-36.82,7.3Z"/><path class="cls-2_team-building-98" d="m102.3,159.76l2.05,4.24c.51,1.05-.25,2.27-1.41,2.28l-3.86.04,3.22-6.56Z"/><path class="cls-15_team-building-98 targetColor" d="m37.96,193.17c-10.58,8.17-26.65,26.22-26.34,60.32l43.75,2.79s12.64-37.43-.58-59.85c-3.51-5.95-11.36-7.49-16.83-3.27Z" style="fill: rgb(253, 114, 2);"/><g class="cls-9_team-building-98"><path class="cls-1_team-building-98" d="m37.96,193.17c-10.58,8.17-26.65,26.22-26.34,60.32l43.75,2.79s12.64-37.43-.58-59.85c-3.51-5.95-11.36-7.49-16.83-3.27Z"/></g><path class="cls-2_team-building-98" d="m176.86,240.92c-1.51,1.61-2.28,3.81-2.45,6.01-.09,1.19,0,2.45.63,3.47.38.61.93,1.1,1.52,1.51,2.39,1.65,6.05,1.9,7.96-.3,1.09-1.26,1.39-3.02,1.42-4.68.04-1.97.23-5.85-1.35-7.37-2.11-2.02-6.09-.39-7.74,1.37Z"/></g><g id="person2_team-building-98"><path class="cls-5_team-building-98" d="m404.45,162.85l-30.76,123.38-45.36-11.31c-4.06-5.16-1.21-10.47-.26-11.79,4.31-2.41,7.61-6.44,8.87-11.48,2.49-10.01-3.98-20.22-14.46-22.83-10.48-2.61-21.01,3.36-23.5,13.36-1.26,5.03-.23,10.15,2.44,14.3.22,1.63.26,7.65-5.76,10.29l-45.34-11.3,11.43-45.85c-2.78-5.43-8.43-5.37-10-5.17-4.15,2.67-9.26,3.7-14.3,2.44-10.01-2.49-15.98-13.02-13.37-23.49,2.62-10.5,12.83-16.97,22.83-14.48,5.03,1.26,9.07,4.56,11.48,8.87,1.27.94,6.26,3.61,11.25.16l11.44-45.87,123.38,30.76Z"/><path class="cls-14_team-building-98" d="m417.56,171.82s-17.79,24.21.26,31.56c18.05,7.35,19.6-19.44,19.6-19.44l-8.14-17.99-11.72,5.87Z"/><path class="cls-15_team-building-98 targetColor" d="m423.81,189.2l22.81.72s68.45,17.64,30.09,96.82c-6.07,12.54-5.57,27.3-5.91,41.23l-.09,3.61h-60.15l-3.14-12.97c-3.49-14.41-10.28-27.73-19.27-39.52-11.64-15.27-19.84-45.56,35.66-89.88Z" style="fill: rgb(253, 114, 2);"/><path class="cls-2_team-building-98" d="m412.99,155.54s.34,9.1,2.6,14.9c.92,2.35,3.61,3.53,5.95,2.58,2.9-1.18,6.49-3.62,6.9-8.52l1.72-8.23s.9-5.2-4.66-8.22c-5.55-3.03-13,1.96-12.51,7.49Z"/><polygon class="cls-2_team-building-98" points="429.85 157.76 438.15 186.43 422.03 189.88 422.46 167.63 429.85 157.76"/><g class="cls-10_team-building-98"><path class="cls-4_team-building-98" d="m422.16,172.5s2.94-.99,4.9-3.81c0,0,.44,5.45-4.84,11.54l-.06-7.72Z"/></g><path class="cls-14_team-building-98" d="m410.88,142.18c-4.6,4.05-3.34,11.47,2.1,14.28,1.69.87,3.89,1.68,6.72,2.22,9.8,1.88,4.97,45.02,25.61,38.94,20.64-6.08,14-15.02,4.64-23.04-9.36-8.02-13.29-22.94-16.87-30.47-2.6-5.47-15.93-7.45-22.2-1.93Z"/><polygon class="cls-2_team-building-98" points="462.89 351.43 465.75 445.83 459.67 447.69 439.13 358.69 462.89 351.43"/><path class="cls-15_team-building-98 targetColor" d="m465.59,444.45s3.76,4.32,8.29,3.88c4.52-.44,5.5,5.94-1.83,5.63-2.8-.12-5.05-.46-6.78-.83-2.05-.44-4.14-.12-6.14.51-.62.2-1.35.09-2.12-.73-2.19-2.33,2.63-8.18,2.63-8.18l5.95-.29Z" style="fill: rgb(253, 114, 2);"/><polygon class="cls-2_team-building-98" points="415.48 351.57 393.71 443.48 399.3 446.52 437.3 363.46 415.48 351.57"/><path class="cls-15_team-building-98 targetColor" d="m394.16,442.16s-4.56,3.48-8.9,2.14c-4.34-1.34-6.58,4.71.66,5.88,2.76.45,5.04.57,6.81.55,2.1-.02,4.08.71,5.91,1.74.57.32,1.31.36,2.22-.29,2.61-1.84-.93-8.54-.93-8.54l-5.77-1.48Z" style="fill: rgb(253, 114, 2);"/><g class="cls-8_team-building-98"><path class="cls-13_team-building-98" d="m444.73,220.5s-7.98,31.41,5.01,52.79c13,21.38-10.61,51.86-10.61,51.86l31.81-1.11s1.94-29.27,9.34-54.36c7.4-25.09-35.55-49.18-35.55-49.18Z"/></g><polygon class="cls-12_team-building-98" points="409.26 326.2 470.95 324.04 482.06 426.64 438.15 426.64 437.43 350.02 409.26 326.2"/><polygon class="cls-12_team-building-98" points="409.26 326.2 379.68 423.38 421.59 426.64 445.66 338.81 409.26 326.2"/><path class="cls-2_team-building-98" d="m452.93,193.6c11.83-1.97,22,8.17,20.37,20.05-1.78,12.99-7.92,32.11-26.39,52.98-33.6,37.98-114.22,16.91-114.22,16.91,0,0-16.39,2.13-18.58-6.65-2.19-8.79,19.54-4.25,19.54-4.25,0,0,39.51,8.36,68.59-18.01,23.63-21.42,26.81-57.04,50.69-61.02Z"/></g><g id="check_team-building-98"><circle class="cls-12_team-building-98" cx="250" cy="74.39" r="43.9"/><path class="cls-1_team-building-98" d="m247.63,91.12c-1.24,0-2.43-.51-3.28-1.42l-12.54-13.39c-1.7-1.81-1.61-4.66.21-6.36,1.81-1.7,4.66-1.61,6.36.21l8.77,9.37,14.1-19.9c1.44-2.03,4.25-2.51,6.27-1.07,2.03,1.44,2.51,4.25,1.07,6.27l-17.29,24.4c-.78,1.1-2.02,1.8-3.37,1.89-.1,0-.21.01-.31.01Z"/></g></svg>