<svg id="_0577_team_work_2" xmlns="http://www.w3.org/2000/svg" viewBox="0 0 500 500" data-imageid="team-work-2-86" imageName="Team Work 2" class="illustrations_image" style="width: 166px;"><defs><style>.cls-1_team-work-2-86{fill:#fff;}.cls-2_team-work-2-86{fill:#f4a28c;}.cls-3_team-work-2-86{opacity:.43;}.cls-3_team-work-2-86,.cls-4_team-work-2-86,.cls-5_team-work-2-86,.cls-6_team-work-2-86,.cls-7_team-work-2-86,.cls-8_team-work-2-86,.cls-9_team-work-2-86,.cls-10_team-work-2-86,.cls-11_team-work-2-86,.cls-12_team-work-2-86,.cls-13_team-work-2-86{fill:none;}.cls-14_team-work-2-86{fill:#a5a5a5;}.cls-4_team-work-2-86{opacity:.58;}.cls-5_team-work-2-86{opacity:.17;}.cls-15_team-work-2-86{fill:#ce8172;}.cls-16_team-work-2-86{fill:#e6e6e6;}.cls-6_team-work-2-86{opacity:.03;}.cls-7_team-work-2-86{opacity:.09;}.cls-8_team-work-2-86{opacity:.73;}.cls-9_team-work-2-86{opacity:.08;}.cls-10_team-work-2-86{opacity:.36;}.cls-11_team-work-2-86{opacity:.31;}.cls-12_team-work-2-86{opacity:.3;}.cls-17_team-work-2-86{fill:#24285b;}.cls-18_team-work-2-86{fill:#000001;}.cls-19_team-work-2-86{fill:#ffd200;}.cls-13_team-work-2-86{opacity:.49;}.cls-20_team-work-2-86{fill:#68e1fd;}</style></defs><g id="bg_team-work-2-86"><g class="cls-12_team-work-2-86"><path class="cls-16_team-work-2-86" d="m162.33,40.64c-43.13,17.61-116.02,46.6-127.67,122.61-8.72,56.89-4.07,205.6,77.32,242.3,109.63,49.44,298.21,26.54,338.65-83.02,25.94-70.29,32.37-212.33-47.95-255.14-54.47-29.03-147.91-64.49-240.35-26.75Z"/></g></g><g id="sd_team-work-2-86" class="cls-6_team-work-2-86"><ellipse class="cls-18_team-work-2-86" cx="259.19" cy="459.28" rx="223.75" ry="16.44"/></g><g id="screen_team-work-2-86"><rect class="cls-16_team-work-2-86" x="79.28" y="159.7" width="368.43" height="267.71" transform="translate(-.72 .65) rotate(-.14)"/><rect class="cls-14_team-work-2-86" x="78.93" y="159.69" width="368.56" height="52.72"/><circle class="cls-17_team-work-2-86" cx="111.99" cy="186.89" r="6.68"/><circle class="cls-20_team-work-2-86 targetColor" cx="131.86" cy="186.84" r="6.68" style="fill: rgb(253, 114, 2);"/><circle class="cls-19_team-work-2-86" cx="150.58" cy="186.79" r="6.68"/><rect class="cls-16_team-work-2-86" x="247.36" y="339.41" width="157.95" height="9.83"/><rect class="cls-16_team-work-2-86" x="247.36" y="365.45" width="157.95" height="9.83"/><rect class="cls-16_team-work-2-86" x="247.36" y="391.49" width="109.75" height="9.83"/><rect class="cls-16_team-work-2-86" x="247.36" y="231.06" width="153.86" height="92.14"/><g class="cls-5_team-work-2-86"><rect class="cls-14_team-work-2-86" x="112.26" y="230.21" width="117.39" height="33.12"/></g><rect class="cls-16_team-work-2-86" x="112.26" y="277.12" width="117.39" height="33.12"/><g class="cls-5_team-work-2-86"><circle class="cls-14_team-work-2-86" cx="132.71" cy="293.83" r="11.91"/></g><g class="cls-5_team-work-2-86"><rect class="cls-14_team-work-2-86" x="153.62" y="286.41" width="47.35" height="5.24"/></g><g class="cls-5_team-work-2-86"><rect class="cls-14_team-work-2-86" x="153.62" y="296.9" width="29.67" height="5.24"/></g><rect class="cls-16_team-work-2-86" x="112.26" y="324.03" width="117.39" height="33.12"/><g class="cls-5_team-work-2-86"><circle class="cls-14_team-work-2-86" cx="132.71" cy="340.74" r="11.91"/></g><g class="cls-5_team-work-2-86"><rect class="cls-14_team-work-2-86" x="153.62" y="333.32" width="47.35" height="5.24"/></g><g class="cls-5_team-work-2-86"><rect class="cls-14_team-work-2-86" x="153.62" y="343.81" width="29.67" height="5.24"/></g><rect class="cls-16_team-work-2-86" x="112.26" y="370.94" width="117.39" height="33.12"/><g class="cls-5_team-work-2-86"><circle class="cls-14_team-work-2-86" cx="132.71" cy="387.65" r="11.91"/></g><g class="cls-5_team-work-2-86"><rect class="cls-14_team-work-2-86" x="153.62" y="380.23" width="47.35" height="5.24"/></g><g class="cls-5_team-work-2-86"><rect class="cls-14_team-work-2-86" x="153.62" y="390.72" width="29.67" height="5.24"/></g><rect class="cls-16_team-work-2-86" x="168.91" y="152.26" width="46.73" height="7.39" transform="translate(384.55 311.9) rotate(-180)"/><rect class="cls-16_team-work-2-86" x="168.91" y="144.83" width="35.35" height="7.39" transform="translate(373.17 297.05) rotate(-180)"/><g class="cls-4_team-work-2-86"><path class="cls-20_team-work-2-86 targetColor" d="m172.86,143.13s13.06-3.57,15.91-15.73c0,0-20.24-4.09-20.82,16.8l4.91-1.07Z" style="fill: rgb(253, 114, 2);"/></g><g class="cls-8_team-work-2-86"><path class="cls-20_team-work-2-86 targetColor" d="m171.26,141.83s9.13-14.43,1.09-27.92c0,0-15.39,9.77-8.55,27.95l7.46-.03Z" style="fill: rgb(253, 114, 2);"/></g><path class="cls-20_team-work-2-86 targetColor" d="m168.91,141.84s-4.82-15.24-19.4-18.13c0,0-2.73,9.9,9.44,18.17l9.96-.04Z" style="fill: rgb(253, 114, 2);"/><polygon class="cls-17_team-work-2-86" points="178.38 141.5 175.74 159.62 159.06 159.69 156.6 141.59 178.38 141.5"/><g id="screen-2_team-work-2-86" class="cls-9_team-work-2-86"><path class="cls-18_team-work-2-86" d="m118.67,427.76c.57,0-13.01-73.8-8.49-83.95s15.27-20.08,15.01-28.18c-.26-8.1,31.49-32.27,38.37-52.3l6.18,9.76,64.35-54.34s10.96-1.58,14.53-9.52,37.03-49.53,37.03-49.53h-17.9s-20.19,26.36-20.19,26.36l-13.69-5.8-73.09,55.12-4.19,16.19s-52.28,37.5-69.54,57.32c-17.26,19.82,5.76,118.95,5.76,118.95l25.85-.06Z"/></g></g><g id="object_team-work-2-86"><rect class="cls-17_team-work-2-86" x="149.51" y="197.33" width="102.3" height="30.14" transform="translate(-89.37 176.83) rotate(-39.64)"/><circle class="cls-19_team-work-2-86" cx="175.69" cy="233.26" r="10.84"/><g class="cls-5_team-work-2-86"><rect class="cls-1_team-work-2-86" x="182.6" y="201.63" width="43.1" height="4.77" transform="translate(-83.21 177.14) rotate(-39.64)"/></g><g class="cls-5_team-work-2-86"><rect class="cls-1_team-work-2-86" x="190.54" y="214.11" width="27.01" height="4.77" transform="translate(-91.2 179.94) rotate(-39.64)"/></g></g><g id="person2_team-work-2-86"><path class="cls-2_team-work-2-86" d="m59.81,368.51l-10.91,34.85c-2.98,9.51-9.78,17.34-18.78,21.62l-16.02,7.61.64,4.72,23.94-5.16c11.36-3.37,20.78-11.35,25.96-22.01l16.91-34.82-21.74-6.81Z"/><polygon class="cls-2_team-work-2-86" points="95.91 378.34 101.04 452.98 96.28 454.63 77.33 384.8 95.91 378.34"/><path class="cls-20_team-work-2-86 targetColor" d="m102.01,454.26s1.03,4.42,4.36,5.79c3.33,1.37,1.65,6.2-3.37,3.26-1.91-1.12-3.37-2.19-4.44-3.09-1.27-1.07-2.85-1.62-4.49-1.92-.51-.09-.98-.44-1.21-1.3-.67-2.44,4.87-4.75,4.87-4.75l4.27,2.01Z" style="fill: rgb(253, 114, 2);"/><path class="cls-20_team-work-2-86 targetColor" d="m14.75,437.31s-3.38,2.58-3.27,5.95c.11,3.37-4.66,3.79-4.08-1.62.22-2.06.58-3.72.94-4.98.43-1.5.29-3.06-.09-4.57-.12-.47,0-1.01.64-1.53,1.83-1.51,5.93,2.33,5.93,2.33l-.07,4.42Z" style="fill: rgb(253, 114, 2);"/><polygon class="cls-2_team-work-2-86" points="67.35 270.15 69.13 277.33 63.31 280.41 62.28 268.12 67.35 270.15"/><path class="cls-2_team-work-2-86" d="m60.92,261.21c1.42-2.81,5.34-3.1,7.3-.63,2.16,2.7,4.68,6.93,1.29,8.85-5.19,2.94-9.21-3.65-9.21-3.65,0,0-.47-2.44.61-4.57Z"/><path class="cls-2_team-work-2-86" d="m37.02,292.67s-25.07,39.17-20.05,44.95c15.92,18.31,51.27-22.94,51.27-22.94l-31.23-22.01Z"/><path class="cls-20_team-work-2-86 targetColor" d="m93.71,286.82c-14.64-10.75-34.73-11.12-49.74-.89-6.56,4.47-11.61,11.13-9.3,20.79,5.42,22.65,22.77,37.58,23.32,57.5l41.08-2.76v-25.64c0-4.9,1.99-9.61,5.6-12.93,3.58-3.3,7.15-8.69,4.71-16.07-2.17-6.57-7.77-14.2-15.66-19.99Z" style="fill: rgb(253, 114, 2);"/><path class="cls-2_team-work-2-86" d="m64.18,265.79s-1.18-1.15-1.87.3c-.69,1.45,1.48,2.35,2.2,1.65.73-.7-.34-1.95-.34-1.95Z"/><g class="cls-9_team-work-2-86"><path class="cls-18_team-work-2-86" d="m73.37,297.49s-8.87,16.96,1.43,33.5c10.3,16.54-9.22,32.71-9.22,32.71l33.5-2.25v-14.62l-25.7-49.34Z"/></g><path class="cls-17_team-work-2-86" d="m56.26,287.34c.8-3.07,4.45-8.65-.7-18.7-1.09-2.13-1.95-7.11.1-10.56,4.9-8.26,12.78-5.43,11.84-.8-.93,4.63-1.59,6.83-1.59,6.83,0,0,14.91,10.7,12.74,18.58-1.93,7.01-25.71,17.43-22.39,4.66Z"/><polygon class="cls-17_team-work-2-86" points="56.18 353.72 99.07 353.72 105.89 413.07 42.28 410.2 56.18 353.72"/><path class="cls-2_team-work-2-86" d="m70.17,307.91c-2.71-6.13.07-13.35,6.24-15.96,2.37-1,5.31-2.01,8.96-2.94,18.26-4.67,49.98-17.39,68.6-41.86,0,0,5.37-9.35,12.94-6.87s2.3,11.28-5.32,9.08c0,0-22.74,57.99-74.76,67.54-6.94,1.27-13.82-2.53-16.67-8.98h0Z"/></g><g id="person1_team-work-2-86"><polygon class="cls-2_team-work-2-86" points="252.01 93.3 272.78 101.61 272.54 116.93 254.44 102.21 252.01 93.3"/><g class="cls-11_team-work-2-86"><path class="cls-15_team-work-2-86" d="m257.17,104.64s.77-2.19,0-4.65c0,0,3.42,2.25,4.58,8.18l-4.59-3.53Z"/></g><path class="cls-2_team-work-2-86" d="m245.35,100.9s4.94,4.72,9.18,6.65c1.72.79,3.79.01,4.55-1.72.94-2.15,1.6-5.34-.74-8.18l-3.38-5.32s-2.23-3.26-6.8-1.99c-4.57,1.27-5.96,7.84-2.81,10.56Z"/><path class="cls-2_team-work-2-86" d="m248.62,103.71l.86,3.13c.21.77,1.16,1.06,1.77.54l2.02-1.73-4.64-1.94Z"/><path class="cls-19_team-work-2-86" d="m260.82,96.28l-6.35-6.77s2-4.86-1.69-5.34-2.89,2.47-6.22.48c-3.33-2-5.67.26-5.01,3.31.66,3.05-1.37.55-3.2,2.69-1.83,2.14-1.17,3.43.59,4.61,1.76,1.18-2.29,3.39-.57,5.69,1.72,2.3,3.85,3.81,7.9-1.84s6.25,1.6,14.56-2.83Z"/><path class="cls-2_team-work-2-86" d="m254.45,98.89s-2.02-1.68-.63-3.1c1.39-1.41,4.33,1,2.92,3.32l-2.3-.22Z"/><g class="cls-9_team-work-2-86"><path class="cls-18_team-work-2-86" d="m327.06,163.49s-8.78,22.82,1.2,34.29c9.98,11.47,32.28,22.56,32.28,22.56,0,0,2.85,13.3,9.91,1.21l-1.37-6.57-20.88-15.89-13.29-16.87,8.61-18.33-16.47-.39Z"/></g><path class="cls-20_team-work-2-86 targetColor" d="m355.67,135.04l-12.13,15.62h-.02l-8.21,10.57s-6.03,1.07-14.34.78c-14.15-.5-34.95-4.92-44.01-25.24-2.42-5.42-4.01-11.97-4.41-19.86l.23-15.31s22.87-16.76,43.45-2.77c20.56,13.99,39.44,36.2,39.44,36.2Z" style="fill: rgb(253, 114, 2);"/><path class="cls-17_team-work-2-86" d="m355.67,135.05s22.77,15.24,10.59,25.76c-7.05,6.08-13.08,13.29-16.92,18.28-2.62,3.41-2.33,8.23.69,11.31l16.99,17.31-2.95,7.92-24.98-15.87c-8.11-5.15-11.66-15.18-8.58-24.29l4.8-14.22,20.37-26.19Z"/><g class="cls-9_team-work-2-86"><path class="cls-18_team-work-2-86" d="m343.53,150.67l-8.23,10.57s-5.96.4-14.34.78c-14.15-.5-34.95-4.92-44.01-25.24,7.34-10,17.01-19.46,21.55-20.5,0,0,8.51,24.02,21.23,28.01,12.42,3.91,23.27,6.26,23.79,6.38h.02Z"/></g><path class="cls-20_team-work-2-86 targetColor" d="m299.24,120.58c1.62-14.05-16.47-21.13-25.17-9.98-2.42,3.1-4.53,6.78-5.78,11.05-4.43,15.11-32.12,76.21-32.12,76.21l9.39,4.59s35.22-44,48.91-68.22c2.88-5.1,4.31-9.65,4.78-13.65Z" style="fill: rgb(253, 114, 2);"/><g class="cls-10_team-work-2-86"><path class="cls-1_team-work-2-86" d="m299.24,120.58c1.62-14.05-16.47-21.13-25.17-9.98-2.42,3.1-4.53,6.78-5.78,11.05-4.43,15.11-32.12,76.21-32.12,76.21l9.39,4.59s35.22-44,48.91-68.22c2.88-5.1,4.31-9.65,4.78-13.65Z"/></g><path class="cls-2_team-work-2-86" d="m237.72,198.62s-10.37,5.84-4.55,9.7c5.82,3.85,12.39-5.86,12.39-5.86l-7.84-3.83Z"/><path class="cls-20_team-work-2-86 targetColor" d="m364.77,213.73s4.82,4.97,3.11,8.24c0,0,3.39,3.56,5.95-1.12,2.56-4.68-1.95-9.94-1.95-9.94l-5.39-1.82-1.73,4.64Z" style="fill: rgb(253, 114, 2);"/></g><g id="person_img_team-work-2-86"><g class="cls-9_team-work-2-86"><path class="cls-18_team-work-2-86" d="m408.12,380.51c-3.31,8.66-6.32,17.43-9.03,26.3-.54,1.78-2.83,12.69-4.75,19.91h22.25c1.47-16.72,7.51-33.04,17.37-46.63.23,16.14.82,33.37,9.92,46.63h10.17c2.1-2.34,3.27-5.57,3.54-8.75.37-4.4-.67-8.78-1.56-13.1-2.75-13.27-4.17-26.82-4.23-40.37-.08-17.08,1.98-34.2.51-51.22-.87-10.1-3.42-20.84-11.06-27.5-.33-.28-.67-.55-1.03-.8.76-6,1.14-12.09,1.5-18.11l1.06-17.54c.36-5.96-2.99-15.66-9.87-8.98-5.61,5.45-3.64,11.63-5.02,18.18-2.13,10.15-14.7,8.84-22.64,8.49-25.11-1.12-50.34-.49-75.47-.49h-59.05v109.28h139.32c-.67,1.58-1.33,3.15-1.93,4.72Z"/></g><path class="cls-20_team-work-2-86 targetColor" d="m402.29,449.35s-3.68,3.63-7.66,1.92c-3.98-1.72-6.89,1.68-3.96,4.55,2.94,2.87,14.05,3,14.05,3l3.26-7.53-5.69-1.93Z" style="fill: rgb(253, 114, 2);"/><path class="cls-20_team-work-2-86 targetColor" d="m464.23,447.66s1.81,4.96-1.2,8.2c-3.01,3.24-1.12,7.36,2.51,5.58,3.63-1.78,7.93-12.58,7.93-12.58l-5.4-6.02-3.84,4.82Z" style="fill: rgb(253, 114, 2);"/><path class="cls-17_team-work-2-86" d="m474.1,354.47s3.89,16.19-2.88,24.15c-6.76,7.96-17.11,45.68,0,64.54l-6.76,6.71s-29.63-15.93-21.18-73.34l-21.15-22.05h51.98Z"/><path class="cls-17_team-work-2-86" d="m422.13,354.47l-21.72,95.39,10.86,1.68s21.72-65.38,36.07-78.79l-25.21-18.28Z"/><path class="cls-20_team-work-2-86 targetColor" d="m417.07,270.59s-22.65,9.66-19.19,45.04l22.13-1.9-2.94-43.14Z" style="fill: rgb(253, 114, 2);"/><g class="cls-10_team-work-2-86"><path class="cls-1_team-work-2-86" d="m417.07,270.59s-22.65,9.66-19.19,45.04l22.13-1.9-2.94-43.14Z"/></g><polygon class="cls-2_team-work-2-86" points="448.9 244.08 448.04 267.08 435.4 265.7 441.1 249.52 448.9 244.08"/><g class="cls-11_team-work-2-86"><path class="cls-15_team-work-2-86" d="m439.71,253.01s2.39-.01,4.51-1.61c0,0-.99,4.09-6.34,7.28l1.83-5.67Z"/></g><path class="cls-20_team-work-2-86 targetColor" d="m446.93,262.43l-7.38,1.53s-33.79,3.64-35.16,22.71c-1.37,19.07,17.71,67.8,17.71,67.8h51.19s41.02-97.08-26.36-92.04Z" style="fill: rgb(253, 114, 2);"/><path class="cls-2_team-work-2-86" d="m436.44,240.72s-1.56,6.85-1.04,11.62c.21,1.94,1.99,3.35,3.92,3.11,2.4-.3,5.56-1.4,6.84-4.97l2.92-5.79s1.7-3.69-1.83-7.06-10.07-1.14-10.82,3.08Z"/><g class="cls-7_team-work-2-86"><path class="cls-18_team-work-2-86" d="m462.05,271.32s-17.51,10.17-13.44,33.18c4.06,23.01,10.82,30.93-3.62,27.71-14.44-3.22-20.38-10.46-20.38-10.46,0,0-10.39,8.48,0,14.91,10.39,6.43,24.5,6.42,26.72,17.81h21.96s1.78-4.99,4.13-11.27c2.36-6.28-15.37-71.88-15.37-71.88Z"/></g><path class="cls-17_team-work-2-86" d="m438.12,241.25c1.21.23,3.44.53,6.48.4,0,0-2.59,2.73-.88,6.37,1.71,3.64,5.44,2.68,5.44,2.68l1.13-8.95c.41-2.6-.62-5.22-2.71-6.82-.85-.65-1.81-1.32-2.78-1.87-2.47-1.41-6.56-1.57-8.79.32-.96.81-1.58,2.01-1.69,3.26s.29,2.54,1.1,3.51c.57.68,1.88.96,2.7,1.12Z"/><path class="cls-2_team-work-2-86" d="m443.01,247.7s.42-2.67,2.41-2.19c1.98.49,1.4,4.35-1.39,4.33l-1.02-2.15Z"/><rect class="cls-19_team-work-2-86" x="280.54" y="255.9" width="148.47" height="108.72"/><g class="cls-3_team-work-2-86"><rect class="cls-1_team-work-2-86" x="292.81" y="266.03" width="123.94" height="88.46"/></g><g class="cls-13_team-work-2-86"><polygon class="cls-1_team-work-2-86" points="294.24 354.5 327.97 292.13 356.61 340.49 382.38 310.26 416.75 354.5 294.24 354.5"/></g><circle class="cls-1_team-work-2-86" cx="358.92" cy="294.12" r="9.94"/><path class="cls-2_team-work-2-86" d="m489.06,311.98s2.89,29.56-11.63,31.21c-10.96,1.24-28.52-4.94-39.25-8-4.64-1.32-6.9-1.94-10.46-5.2-4.28-3.91-10.22-6.69-5.6-10.41,8.2-6.6,14.01,4.7,14.01,4.7,0,0,10.48,3.21,21.02,3.5,5.74.16,10.01-5.26,8.53-10.8l-2.71-10.18s19.21-18.02,26.1,5.17Z"/><path class="cls-2_team-work-2-86" d="m435.68,245.08l-2.31,2.41c-.57.6-.33,1.58.45,1.84l2.59.87-.73-5.13Z"/><path class="cls-20_team-work-2-86 targetColor" d="m473.98,269c7.5,5.79,18.89,18.59,18.67,42.75l-31.01,1.98s-8.96-26.53.41-42.42c2.49-4.22,8.05-5.31,11.93-2.31Z" style="fill: rgb(253, 114, 2);"/><g class="cls-10_team-work-2-86"><path class="cls-1_team-work-2-86" d="m473.98,269c7.5,5.79,18.89,18.59,18.67,42.75l-31.01,1.98s-8.96-26.53.41-42.42c2.49-4.22,8.05-5.31,11.93-2.31Z"/></g></g></svg>